# AST/ASF file generated using VICON BodyLanguage
# -----------------------------------------------
:version 1.10
:name VICON
:units
  mass 1.0
  length 0.45
  angle deg
:documentation
   .ast/.asf automatically generated from VICON data using
   VICON BodyBuilder and BodyLanguage model FoxedUp or BRILLIANT.MOD
:root
   order TX TY TZ RX RY RZ
   axis XYZ
   position 0 0 0  
   orientation 0 0 0 
:bonedata
  begin
     id 1 
     name lhipjoint
     direction 0.566809 -0.746272 0.349008 
     length 2.40479 
     axis 0 0 0  XYZ
  end
  begin
     id 2 
     name lfemur
     direction 0.34202 -0.939693 0  
     length 7.1578  
     axis 0 0 20  XYZ
    dof rx ry rz
    limits (-160.0 20.0)
           (-70.0 70.0)
           (-60.0 70.0)
  end
  begin
     id 3 
     name ltibia
     direction 0.34202 -0.939693 0   
     length 7.49137   
     axis 0 0 20   XYZ
    dof rx
    limits (-10.0 170.0)
  end
  begin
     id 4 
     name lfoot
     direction 0.0665746 -0.182912 0.980873   
     length 2.36784   
     axis -90 7.62852e-016 20   XYZ
    dof rx rz
    limits (-45.0 90.0)
           (-70.0 20.0)
  end
  begin
     id 5 
     name ltoes
     direction 1.53601e-011 -4.22058e-011 1   
     length 1.18966   
     axis -90 7.62852e-016 20   XYZ
    dof rx
    limits (-90.0 20.0)
  end
  begin
     id 6 
     name rhipjoint
     direction -0.550236 -0.756381 0.353735   
     length 2.37265  
     axis 0 0 0  XYZ 
  end
  begin
     id 7 
     name rfemur
     direction -0.34202 -0.939693 0   
     length 7.43386   
     axis 0 0 -20   XYZ
    dof rx ry rz
    limits (-160.0 20.0)
           (-70.0 70.0)
           (-70.0 60.0)
  end
  begin
     id 8 
     name rtibia
     direction -0.34202 -0.939693 0   
     length 7.50908   
     axis 0 0 -20   XYZ
    dof rx
    limits (-10.0 170.0)
 end
 begin
     id 9 
     name rfoot
     direction -0.0683029 -0.187661 0.979856   
     length 2.41173  
     axis -90 -7.62852e-016 -20   XYZ
    dof rx rz
    limits (-45.0 90.0)
           (-20.0 70.0)
  end
  begin
     id 10 
     name rtoes
     direction -1.53528e-011 -4.21968e-011 1   
     length 1.21082   
     axis -90 -7.62852e-016 -20   XYZ
    dof rx
    limits (-90.0 20.0)
  end
  begin
     id 11 
     name lowerback
     direction 0.013823 0.995423 -0.0945635   
     length 2.04495   
     axis 0 0 0   XYZ
    dof rx ry rz
    limits (-20.0 45.0)
           (-30.0 30.0)
           (-30.0 30.0)
  end
  begin
     id 12 
     name upperback
     direction 0.0276657 0.9994 -0.020853   
     length 2.05008   
     axis 0 0 0   XYZ
    dof rx ry rz
    limits (-20.0 45.0)
           (-30.0 30.0)
           (-30.0 30.0)
  end
  begin
     id 13 
     name thorax
     direction 0.019782 0.999531 0.0233827   
     length 2.06488   
     axis 0 0 0   XYZ
    dof rx ry rz
    limits (-20.0 45.0)
           (-30.0 30.0)
           (-30.0 30.0)
  end
  begin
     id 14 
     name lowerneck
     direction -0.0308541 0.994709 0.0979874   
     length 1.75553   
     axis 0 0 0   XYZ
    dof rx ry rz
    limits (-20.0 45.0)
           (-30.0 30.0)
           (-30.0 30.0)
  end
  begin
     id 15 
     name upperneck
     direction 0.0588398 0.995804 -0.0700903   
     length 1.76878   
     axis 0 0 0   XYZ
    dof rx ry rz
    limits (-20.0 45.0)
           (-30.0 30.0)
           (-30.0 30.0)
  end
  begin
     id 16
     name head
     direction 0.0209966 0.999159 -0.0352225  
     length 1.77193  
     axis 0 0 0   XYZ
    dof rx ry rz
    limits (-20.0 45.0)
           (-30.0 30.0)
           (-30.0 30.0)
  end
  begin
     id 17 
     name lclavicle
     direction 0.938182 0.335073 -0.0868338  
     length 3.58396  
     axis 0 0 0   XYZ
    dof ry rz
    limits (-20.0 10.0)
           (0.0 20.0)
  end
  begin
     id 18 
     name lhumerus
     direction 1 -4.48971e-011 -1.26313e-017   
     length 4.983   
     axis 180 -30 -90   XYZ
    dof rx ry rz
    limits (-60.0 90.0)
           (-90.0 90.0)
           (-90.0 90.0)
  end
  begin
     id 19
     name lradius
     direction 1 -4.48948e-011 -5.89033e-027   
     length 3.48356   
     axis 180 -30 -90   XYZ
    dof rx
    limits (-10.0 170.0)
  end
  begin
     id 20
     name lwrist
     direction 1 -4.48977e-011 -1.48983e-026   
     length 1.74178   
     axis 9.0955e-015 90 90   XYZ
    dof ry
    limits (-180.0 0.0)
 end
  begin
     id 21 
     name lhand
     direction 1 -4.49046e-011 -2.98066e-026   
     length 0.715259   
     axis 1.90115e-014 90 90   XYZ
    dof rx rz
    limits (-90.0 90.0)
           (-45.0 45.0)
  end
  begin
     id 22 
     name lfingers
     direction 1 -4.48907e-011 -5.95731e-026   
     length 0.576661   
     axis 3.80223e-014 90 90   XYZ
    dof rx
    limits (0.0 90.0)
  end
  begin
     id 23
     name lthumb
     direction 0.707107 -6.34963e-011 0.707107   
     length 0.827973   
     axis -90 45 -3.84942e-014   XYZ
    dof rx rz
    limits (-45.0 45.0)
           (-45.0 45.0)
  end
  begin
     id 24 
     name rclavicle
     direction -0.909637 0.398485 -0.11735   
     length 3.44819  
     axis 0 0 0   XYZ 
    dof ry rz
    limits (-10.0 20.0)
           (-20.0 0.0)
  end
  begin
     id 25 
     name rhumerus
     direction -1 -4.48978e-011 -1.09333e-027  
     length 5.2419   
     axis 180 30 90   XYZ
    dof rx ry rz
    limits (-90.0 60.0)
           (-90.0 90.0)
           (-90.0 90.0)
  end
  begin
     id 26 
     name rradius
     direction -1 -4.48953e-011 -7.61841e-027   
     length 3.44417   
     axis 180 30 90   XYZ
    dof rx
    limits (-10.0 170.0)
  end
  begin
     id 27 
     name rwrist
     direction -1 -4.48977e-011 -1.48983e-026   
     length 1.72209   
     axis 9.0955e-015 -90 -90   XYZ
    dof ry
    limits (-180.0 0.0)
  end
  begin
     id 28
     name rhand
     direction -1 -4.49027e-011 -2.98038e-026   
     length 0.622529   
     axis 1.90115e-014 -90 -90   XYZ
    dof rx rz
    limits (-90.0 90.0)
           (-45.0 45.0)
  end
  begin
     id 29
     name rfingers
     direction -1 -4.48838e-011 -5.95531e-026   
     length 0.501899   
     axis 3.80223e-014 -90 -90   XYZ
    dof rx
    limits (0.0 90.0)
  end
  begin
     id 30
     name rthumb
     direction -0.707107 -6.34937e-011 0.707107   
     length 0.720629   
     axis -90 -45 3.84942e-014   XYZ
    dof rx rz
    limits (-45.0 45.0)
           (-45.0 45.0)
  end
:hierarchy
  begin
    root lhipjoint rhipjoint lowerback
    lhipjoint lfemur
    lfemur ltibia
    ltibia lfoot
    lfoot ltoes
    rhipjoint rfemur
    rfemur rtibia
    rtibia rfoot
    rfoot rtoes
    lowerback upperback
    upperback thorax
    thorax lowerneck lclavicle rclavicle
    lowerneck upperneck
    upperneck head
    lclavicle lhumerus
    lhumerus lradius
    lradius lwrist
    lwrist lhand lthumb
    lhand lfingers
    rclavicle rhumerus
    rhumerus rradius
    rradius rwrist
    rwrist rhand rthumb
    rhand rfingers
  end

#!OML:ASF F:\VICON\USERDATA\Patient Classification 1\PLAYGROUND\JustinFriday\JustinFriday.ASF
:FULLY-SPECIFIED
:DEGREES
1
root -0.808516 17.8049 18.3516 176.53 -79.2921 -175.264
lowerback 9.34381 2.11243 -4.13646
upperback 4.69801 2.24631 -1.079
thorax -0.474854 0.983426 0.989801
lowerneck 2.52654 -5.80169 -9.94307
upperneck 20.7912 -8.4808 0.370568
head 6.38731 -5.08486 1.30455
rclavicle -2.18663e-014 9.54166e-015
rhumerus -26.1132 -0.973325 -84.0651
rradius 44.7572
rwrist -16.1926
rhand -16.5374 -23.3585
rfingers 7.12502
rthumb 9.68165 -53.116
lclavicle -2.18663e-014 9.54166e-015
lhumerus -22.0375 -0.305555 72.9171
lradius 41.153
lwrist 7.30479
lhand -18.5872 -6.85772
lfingers 7.12502
lthumb 7.70359 22.982
rfemur -25.4005 -2.15736 19.9665
rtibia 56.7953
rfoot -6.91995 -7.03073
rtoes 13.9191
lfemur -7.39938 11.0537 -18.8742
ltibia 22.3783
lfoot -13.1743 -5.96839
ltoes 16.3678
2
root -0.901192 17.7964 18.3347 173.234 -79.1239 -171.974
lowerback 9.38257 2.05496 -3.62676
upperback 4.796 2.21353 -0.899744
thorax -0.382652 0.970001 0.893932
lowerneck 3.21859 -5.60153 -9.60602
upperneck 19.9134 -8.29055 0.568849
head 5.9675 -4.93229 1.36766
rclavicle -3.45885e-014 1.59028e-015
rhumerus -25.9987 -1.24738 -84.2906
rradius 44.5391
rwrist -15.6311
rhand -16.8076 -22.7679
rfingers 7.12502
rthumb 9.42101 -52.5374
lclavicle -3.45885e-014 1.59028e-015
lhumerus -21.7326 -0.643097 72.8676
lradius 42.0384
lwrist 7.87863
lhand -18.8932 -6.61361
lfingers 7.12502
lthumb 7.40821 23.2367
rfemur -25.708 -2.30682 20.8758
rtibia 55.0512
rfoot -6.86481 -7.60449
rtoes 12.1729
lfemur -7.42807 10.956 -18.0902
ltibia 23.3117
lfoot -14.0209 -5.88505
ltoes 15.7698
3
root -0.986696 17.7931 18.3433 171.2 -78.8263 -169.667
lowerback 9.34902 1.99862 -2.89117
upperback 4.74086 2.20519 -0.858491
thorax -0.397452 0.980356 0.526355
lowerneck 3.33156 -5.60394 -9.40195
upperneck 19.8376 -8.27347 0.335623
head 5.9048 -4.92377 1.26862
rclavicle -9.34288e-015 -6.36111e-015
rhumerus -25.9149 -1.45747 -84.4586
rradius 44.2732
rwrist -15.2905
rhand -16.8387 -22.3711
rfingers 7.12502
rthumb 9.39096 -52.1419
lclavicle -9.34288e-015 -6.36111e-015
lhumerus -21.4967 -0.934606 72.8487
lradius 42.8659
lwrist 8.18266
lhand -19.3206 -6.06496
lfingers 7.12502
lthumb 6.99568 23.7994
rfemur -26.3921 -2.44123 21.5026
rtibia 53.5374
rfoot -6.99302 -8.01542
rtoes 10.2812
lfemur -7.42673 10.7471 -17.6468
ltibia 23.5008
lfoot -14.6405 -5.43495
ltoes 14.6405
4
root -1.06813 17.7848 18.3897 179.551 -78.9987 -177.741
lowerback 9.30747 1.90124 -3.77492
upperback 4.61446 1.99117 -1.41164
thorax -0.506986 0.866658 0.469872
lowerneck 3.279 -5.60906 -9.64669
upperneck 19.8701 -8.28775 0.428232
head 5.94065 -4.94272 1.33258
rclavicle 3.00165e-014 -2.14687e-014
rhumerus -25.8862 -1.31607 -84.5008
rradius 44.1277
rwrist -15.1972
rhand -16.1977 -22.1988
rfingers 7.12502
rthumb 10.0094 -51.9408
lclavicle 3.00165e-014 -2.14687e-014
lhumerus -21.2242 -1.26588 72.8464
lradius 43.5301
lwrist 8.44029
lhand -19.528 -5.87138
lfingers 7.12502
lthumb 6.79545 23.9996
rfemur -27.4016 -3.66023 19.6468
rtibia 52.047
rfoot -7.0034 -7.49415
rtoes 10.0993
lfemur -7.66768 10.6058 -19.6872
ltibia 23.6931
lfoot -15.2111 -5.15514
ltoes 13.8636
5
root -1.16177 17.7833 18.3745 180.519 -78.815 -178.566
lowerback 9.18393 1.95153 -4.03966
upperback 4.62635 2.04223 -1.42858
thorax -0.4364 0.886698 0.598964
lowerneck 3.35507 -5.59402 -9.87471
upperneck 19.7227 -8.30784 0.704603
head 5.90356 -4.94563 1.45951
rclavicle -9.93923e-015 4.77083e-015
rhumerus -25.9824 -0.835626 -84.5892
rradius 44.1942
rwrist -15.7044
rhand -16.1377 -22.3617
rfingers 7.12502
rthumb 10.0673 -52.1009
lclavicle -9.93923e-015 4.77083e-015
lhumerus -20.9151 -1.82035 72.8543
lradius 44.1257
lwrist 8.66635
lhand -19.873 -6.19797
lfingers 7.12502
lthumb 6.46246 23.6834
rfemur -27.9632 -3.93964 19.6868
rtibia 50.4149
rfoot -6.87475 -7.94421
rtoes 8.5941
lfemur -7.47456 10.4439 -19.8822
ltibia 23.7747
lfoot -15.8665 -4.61031
ltoes 12.5679
6
root -1.25558 17.7828 18.3558 179.507 -78.5655 -177.32
lowerback 9.07046 2.00438 -3.88669
upperback 4.57284 2.13545 -1.35527
thorax -0.431189 0.937667 0.582706
lowerneck 3.43385 -5.5325 -10.0788
upperneck 19.7875 -8.27247 0.92674
head 5.92719 -4.93377 1.56516
rclavicle 4.17448e-014 -2.8625e-014
rhumerus -26.219 -0.662112 -84.7451
rradius 44.2714
rwrist -15.9578
rhand -15.9489 -22.2226
rfingers 7.12502
rthumb 10.2495 -51.9529
lclavicle 4.17448e-014 -2.8625e-014
lhumerus -20.7186 -2.17105 72.8559
lradius 44.7774
lwrist 8.53643
lhand -19.6662 -6.29728
lfingers 7.12502
lthumb 6.66201 23.5779
rfemur -28.5733 -4.03237 20.2347
rtibia 48.7512
rfoot -6.80769 -8.62417
rtoes 7.04877
lfemur -7.23519 10.1944 -19.6405
ltibia 23.6585
lfoot -16.3583 -4.01059
ltoes 11.9788
7
root -1.34735 17.7753 18.3451 179.243 -78.4456 -176.826
lowerback 9.0312 2.01904 -3.77325
upperback 4.50706 2.16861 -1.33359
thorax -0.476188 0.95895 0.538642
lowerneck 3.18589 -5.56092 -10.081
upperneck 20.2161 -8.28341 0.788675
head 6.10166 -4.9621 1.50506
rclavicle -1.09332e-014 -4.45278e-014
rhumerus -26.3898 -1.25984 -84.7772
rradius 44.1645
rwrist -15.0946
rhand -16.0219 -22.3915
rfingers 7.12502
rthumb 10.179 -52.1253
lclavicle -1.09332e-014 -4.45278e-014
lhumerus -20.5478 -2.46645 72.8753
lradius 45.5145
lwrist 8.43598
lhand -19.2128 -5.98132
lfingers 7.12502
lthumb 7.09977 23.8796
rfemur -29.1412 -4.41969 20.6281
rtibia 46.9279
rfoot -6.58334 -9.22024
rtoes 7.46287
lfemur -7.09646 10.1742 -19.5727
ltibia 23.5942
lfoot -16.602 -3.76363
ltoes 11.7264
8
root -1.44093 17.7634 18.3366 179.968 -78.5074 -177.384
lowerback 8.98379 2.02817 -3.80574
upperback 4.53211 2.17887 -1.39431
thorax -0.42333 0.962437 0.49511
lowerneck 2.83288 -5.73182 -9.63336
upperneck 20.4327 -8.40787 0.299977
head 6.19685 -5.02261 1.25656
rclavicle 1.39149e-015 1.43125e-014
rhumerus -26.4104 -1.57606 -84.7748
rradius 43.9826
rwrist -14.7999
rhand -16.2294 -22.3487
rfingers 7.12502
rthumb 9.97883 -52.0922
lclavicle 1.39149e-015 1.43125e-014
lhumerus -20.2376 -3.00689 72.8888
lradius 46.1724
lwrist 8.59441
lhand -19.4663 -6.01825
lfingers 7.12502
lthumb 6.85503 23.8508
rfemur -29.5774 -4.90252 20.7985
rtibia 45.0254
rfoot -6.1443 -9.8544
rtoes 8.18056
lfemur -6.88363 10.3373 -19.7087
ltibia 23.4424
lfoot -16.782 -3.82391
ltoes 10.584
9
root -1.53114 17.7518 18.3178 180.88 -78.0283 -178.367
lowerback 9.19291 2.21246 -4.07027
upperback 4.57792 2.38157 -1.47413
thorax -0.504225 1.05717 0.534491
lowerneck 3.14357 -5.77281 -10.0669
upperneck 19.9762 -8.56844 0.938136
head 6.05373 -5.07396 1.53624
rclavicle -2.20651e-014 2.70347e-014
rhumerus -26.4937 -1.31507 -84.8493
rradius 43.7946
rwrist -15.4632
rhand -16.8099 -22.5074
rfingers 7.12502
rthumb 9.41873 -52.2769
lclavicle -2.20651e-014 2.70347e-014
lhumerus -20.0525 -3.50831 72.8387
lradius 46.8141
lwrist 8.84039
lhand -19.9104 -6.4265
lfingers 7.12502
lthumb 6.42629 23.456
rfemur -29.8111 -4.76874 20.8509
rtibia 43.0598
rfoot -5.85943 -10.3832
rtoes 8.77496
lfemur -6.30511 10.4875 -19.8864
ltibia 23.255
lfoot -17.1648 -3.42094
ltoes 9.37109
10
root -1.63268 17.7534 18.3006 181.306 -78.3518 -178.671
lowerback 9.18727 2.02623 -4.10778
upperback 4.58599 2.13422 -1.43956
thorax -0.485588 0.933051 0.615849
lowerneck 3.30429 -5.73949 -10.2394
upperneck 19.6738 -8.51805 0.898012
head 5.93508 -5.05451 1.56433
rclavicle 5.96354e-016 -1.35174e-014
rhumerus -26.6062 -1.39857 -84.8379
rradius 43.5534
rwrist -15.4925
rhand -16.5219 -22.3118
rfingers 7.12502
rthumb 9.6966 -52.0686
lclavicle 5.96354e-016 -1.35174e-014
lhumerus -20.0015 -3.64555 72.8792
lradius 47.439
lwrist 8.93739
lhand -20.1279 -6.73499
lfingers 7.12502
lthumb 6.21638 23.1538
rfemur -30.0821 -5.2883 20.9933
rtibia 41.0193
rfoot -5.951 -11.001
rtoes 10.9496
lfemur -5.91822 10.0623 -19.9391
ltibia 22.9981
lfoot -17.32 -3.2689
ltoes 8.94166
11
root -1.72979 17.747 18.2862 181.219 -78.1987 -178.356
lowerback 9.09534 2.00568 -4.07402
upperback 4.59008 2.11805 -1.37191
thorax -0.431736 0.924814 0.671286
lowerneck 3.36287 -5.86538 -9.16363
upperneck 19.4648 -8.59401 0.190803
head 5.78013 -5.05321 1.17684
rclavicle -1.59028e-014 -1.27222e-014
rhumerus -26.6202 -1.40103 -84.8465
rradius 43.3009
rwrist -15.1531
rhand -15.5664 -22.4266
rfingers 7.12502
rthumb 10.6184 -52.1384
lclavicle -1.59028e-014 -1.27222e-014
lhumerus -19.8747 -3.61789 73.0042
lradius 47.9585
lwrist 8.66005
lhand -20.259 -6.76296
lfingers 7.12502
lthumb 6.08978 23.1295
rfemur -30.4678 -5.46762 21.3124
rtibia 38.9719
rfoot -6.03779 -11.4371
rtoes 13.9108
lfemur -5.60423 10.0205 -19.9083
ltibia 22.6776
lfoot -17.4884 -2.95934
ltoes 8.29332
